<svg width="16" height="19" viewBox="0 0 16 19" fill="none" xmlns="http://www.w3.org/2000/svg">
<path d="M12.375 5.875H15.75V15.4375C15.75 17.0195 14.4844 18.25 12.9375 18.25H2.8125C1.23047 18.25 0 17.0195 0 15.4375V5.875H3.375V4.75C3.375 2.28906 5.37891 0.25 7.875 0.25C10.3359 0.25 12.375 2.28906 12.375 4.75V5.875ZM5.625 4.75V5.875H10.125V4.75C10.125 3.51953 9.10547 2.5 7.875 2.5C6.60938 2.5 5.625 3.51953 5.625 4.75ZM11.25 8.96875C11.707 8.96875 12.0938 8.61719 12.0938 8.125C12.0938 7.66797 11.707 7.28125 11.25 7.28125C10.7578 7.28125 10.4062 7.66797 10.4062 8.125C10.4062 8.61719 10.7578 8.96875 11.25 8.96875ZM4.5 8.96875C4.95703 8.96875 5.34375 8.61719 5.34375 8.125C5.34375 7.66797 4.95703 7.28125 4.5 7.28125C4.00781 7.28125 3.65625 7.66797 3.65625 8.125C3.65625 8.61719 4.00781 8.96875 4.5 8.96875Z" fill="#757575"/>
</svg>
