<svg width="181" height="60" viewBox="0 0 181 60" fill="none" xmlns="http://www.w3.org/2000/svg">
<path d="M173.5 0H7.5C3.63401 0 0.5 3.13401 0.5 7V53C0.5 56.866 3.63401 60 7.5 60H173.5C177.366 60 180.5 56.866 180.5 53V7C180.5 3.13401 177.366 0 173.5 0Z" fill="white"/>
<path d="M122.789 28.8014V32.2379H120.635V34.4916H122.789V42.1491C122.789 44.7638 123.972 45.8097 126.947 45.8097C127.47 45.8097 127.968 45.7475 128.404 45.6727V43.444C128.031 43.4813 127.794 43.5062 127.383 43.5062C126.051 43.5062 125.466 42.8837 125.466 41.4643V34.4916H128.404V32.2379H125.466V28.8014H122.789Z" fill="#212121"/>
<path d="M135.985 45.9965C139.944 45.9965 142.372 43.3444 142.372 38.9491C142.372 34.5788 139.932 31.9142 135.985 31.9142C132.026 31.9142 129.585 34.5788 129.585 38.9491C129.585 43.3444 132.013 45.9965 135.985 45.9965ZM135.985 43.6183C133.657 43.6183 132.349 41.9125 132.349 38.9491C132.349 36.0106 133.657 34.2924 135.985 34.2924C138.301 34.2924 139.621 36.0106 139.621 38.9491C139.621 41.9 138.301 43.6183 135.985 43.6183Z" fill="#212121"/>
<path d="M144.45 45.735H147.127V37.7289C147.127 35.8239 148.559 34.5414 150.588 34.5414C151.061 34.5414 151.858 34.6286 152.082 34.7033V32.0636C151.796 31.9889 151.286 31.9516 150.887 31.9516C149.119 31.9516 147.612 32.9227 147.226 34.255H147.027V32.1757H144.45V45.735Z" fill="#212121"/>
<path d="M158.729 34.1928C160.709 34.1928 162.004 35.5748 162.066 37.704H155.218C155.367 35.5873 156.75 34.1928 158.729 34.1928ZM162.054 42.0744C161.556 43.1327 160.448 43.7179 158.829 43.7179C156.687 43.7179 155.305 42.2113 155.218 39.8331V39.6837H164.793V38.7499C164.793 34.4916 162.514 31.9142 158.742 31.9142C154.919 31.9142 152.491 34.6659 152.491 38.9989C152.491 43.3319 154.869 45.9965 158.754 45.9965C161.855 45.9965 164.021 44.5023 164.631 42.0744H162.054Z" fill="#212121"/>
<path d="M105.233 40.7278C105.44 44.0573 108.215 46.1867 112.344 46.1867C116.758 46.1867 119.52 43.9541 119.52 40.3922C119.52 37.5918 117.945 36.0431 114.125 35.1527L112.073 34.6494C109.647 34.0815 108.666 33.3201 108.666 31.9909C108.666 30.3132 110.189 29.2163 112.473 29.2163C114.641 29.2163 116.138 30.2874 116.409 32.0038H119.223C119.055 28.8678 116.293 26.661 112.512 26.661C108.447 26.661 105.737 28.8678 105.737 32.1845C105.737 34.9204 107.272 36.5464 110.641 37.3337L113.041 37.9144C115.506 38.4951 116.59 39.3469 116.59 40.7665C116.59 42.4183 114.887 43.6185 112.564 43.6185C110.073 43.6185 108.344 42.4958 108.098 40.7278H105.233Z" fill="#212121"/>
<path d="M77.502 31.9516C75.66 31.9516 74.066 32.8729 73.244 34.4169H73.045V32.1757H70.467V50.2423H73.144V43.6806H73.356C74.066 45.1124 75.597 45.9591 77.527 45.9591C80.951 45.9591 83.13 43.2572 83.13 38.9491C83.13 34.641 80.951 31.9516 77.502 31.9516ZM76.743 43.556C74.502 43.556 73.095 41.788 73.095 38.9616C73.095 36.1227 74.502 34.3546 76.755 34.3546C79.021 34.3546 80.379 36.0853 80.379 38.9491C80.379 41.8253 79.021 43.556 76.743 43.556Z" fill="#212121"/>
<path d="M92.498 31.9516C90.655 31.9516 89.061 32.8729 88.239 34.4169H88.04V32.1757H85.463V50.2423H88.14V43.6806H88.351C89.061 45.1124 90.593 45.9591 92.522 45.9591C95.947 45.9591 98.126 43.2572 98.126 38.9491C98.126 34.641 95.947 31.9516 92.498 31.9516ZM91.738 43.556C89.497 43.556 88.09 41.788 88.09 38.9616C88.09 36.1227 89.497 34.3546 91.751 34.3546C94.017 34.3546 95.374 36.0853 95.374 38.9491C95.374 41.8253 94.017 43.556 91.738 43.556Z" fill="#212121"/>
<path d="M65.664 45.735H68.736L62.012 27.1127H58.9021L52.1785 45.735H55.1467L56.8631 40.7923H63.961L65.664 45.735ZM60.309 30.4939H60.528L63.225 38.3661H57.5987L60.309 30.4939Z" fill="#212121"/>
<path d="M53.9767 13.0664V22.0499H57.2202C59.8972 22.0499 61.447 20.4001 61.447 17.5302C61.447 14.7037 59.8848 13.0664 57.2202 13.0664H53.9767ZM55.3712 14.3364H57.0646C58.926 14.3364 60.028 15.5193 60.028 17.5488C60.028 19.6095 58.9447 20.7799 57.0646 20.7799H55.3712V14.3364Z" fill="#616161"/>
<path d="M66.195 22.1807C68.175 22.1807 69.389 20.8546 69.389 18.657C69.389 16.4718 68.169 15.1395 66.195 15.1395C64.215 15.1395 62.995 16.4718 62.995 18.657C62.995 20.8546 64.209 22.1807 66.195 22.1807ZM66.195 20.9916C65.031 20.9916 64.377 20.1387 64.377 18.657C64.377 17.1877 65.031 16.3286 66.195 16.3286C67.353 16.3286 68.013 17.1877 68.013 18.657C68.013 20.1324 67.353 20.9916 66.195 20.9916Z" fill="#616161"/>
<path d="M79.727 15.2703H78.388L77.181 20.4437H77.075L75.68 15.2703H74.398L73.003 20.4437H72.904L71.69 15.2703H70.333L72.2 22.0499H73.576L74.971 17.057H75.076L76.477 22.0499H77.866L79.727 15.2703Z" fill="#616161"/>
<path d="M81.268 22.0499H82.607V18.0842C82.607 17.0259 83.236 16.366 84.226 16.366C85.215 16.366 85.689 16.9076 85.689 17.9971V22.0499H87.027V17.6609C87.027 16.0485 86.193 15.1395 84.68 15.1395C83.659 15.1395 82.987 15.594 82.657 16.3473H82.557V15.2703H81.268V22.0499Z" fill="#616161"/>
<path d="M89.135 22.0499H90.474V12.6244H89.135V22.0499Z" fill="#616161"/>
<path d="M95.508 22.1807C97.487 22.1807 98.701 20.8546 98.701 18.657C98.701 16.4718 97.481 15.1395 95.508 15.1395C93.528 15.1395 92.308 16.4718 92.308 18.657C92.308 20.8546 93.522 22.1807 95.508 22.1807ZM95.508 20.9916C94.343 20.9916 93.69 20.1387 93.69 18.657C93.69 17.1877 94.343 16.3286 95.508 16.3286C96.666 16.3286 97.325 17.1877 97.325 18.657C97.325 20.1324 96.666 20.9916 95.508 20.9916Z" fill="#616161"/>
<path d="M102.689 21.0352C101.961 21.0352 101.432 20.6803 101.432 20.0702C101.432 19.4725 101.855 19.155 102.789 19.0928L104.445 18.9869V19.5535C104.445 20.3939 103.698 21.0352 102.689 21.0352ZM102.347 22.162C103.237 22.162 103.978 21.776 104.383 21.0974H104.489V22.0499H105.777V17.4181C105.777 15.9862 104.819 15.1395 103.119 15.1395C101.581 15.1395 100.486 15.8866 100.349 17.0508H101.644C101.793 16.5714 102.31 16.2975 103.057 16.2975C103.972 16.2975 104.445 16.7021 104.445 17.4181V18.0033L102.608 18.1091C100.996 18.2087 100.087 18.9122 100.087 20.1324C100.087 21.3713 101.04 22.162 102.347 22.162Z" fill="#616161"/>
<path d="M110.319 22.162C111.253 22.162 112.044 21.72 112.449 20.9791H112.554V22.0499H113.837V12.6244H112.498V16.3473H112.399C112.032 15.6002 111.247 15.1582 110.319 15.1582C108.607 15.1582 107.506 16.5154 107.506 18.657C107.506 20.8048 108.595 22.162 110.319 22.162ZM110.699 16.3597C111.82 16.3597 112.523 17.25 112.523 18.6632C112.523 20.0826 111.826 20.9604 110.699 20.9604C109.566 20.9604 108.888 20.0951 108.888 18.657C108.888 17.2313 109.572 16.3597 110.699 16.3597Z" fill="#616161"/>
<path d="M122.517 22.1807C124.496 22.1807 125.71 20.8546 125.71 18.657C125.71 16.4718 124.49 15.1395 122.517 15.1395C120.537 15.1395 119.317 16.4718 119.317 18.657C119.317 20.8546 120.531 22.1807 122.517 22.1807ZM122.517 20.9916C121.352 20.9916 120.699 20.1387 120.699 18.657C120.699 17.1877 121.352 16.3286 122.517 16.3286C123.675 16.3286 124.335 17.1877 124.335 18.657C124.335 20.1324 123.675 20.9916 122.517 20.9916Z" fill="#616161"/>
<path d="M127.482 22.0499H128.821V18.0842C128.821 17.0259 129.449 16.366 130.439 16.366C131.429 16.366 131.902 16.9076 131.902 17.9971V22.0499H133.241V17.6609C133.241 16.0485 132.407 15.1395 130.894 15.1395C129.873 15.1395 129.2 15.594 128.87 16.3473H128.771V15.2703H127.482V22.0499Z" fill="#616161"/>
<path d="M139.405 13.5831V15.3014H138.328V16.4282H139.405V20.257C139.405 21.5643 139.997 22.0873 141.485 22.0873C141.746 22.0873 141.995 22.0562 142.213 22.0188V20.9044C142.026 20.9231 141.908 20.9355 141.703 20.9355C141.037 20.9355 140.744 20.6243 140.744 19.9146V16.4282H142.213V15.3014H140.744V13.5831H139.405Z" fill="#616161"/>
<path d="M144.01 22.0499H145.348V18.0905C145.348 17.0632 145.958 16.3722 147.054 16.3722C148 16.3722 148.505 16.92 148.505 18.0033V22.0499H149.843V17.6733C149.843 16.0609 148.953 15.1458 147.509 15.1458C146.488 15.1458 145.772 15.6002 145.442 16.3597H145.336V12.6244H144.01V22.0499Z" fill="#616161"/>
<path d="M154.672 16.2788C155.662 16.2788 156.309 16.9698 156.34 18.0344H152.916C152.991 16.9761 153.682 16.2788 154.672 16.2788ZM156.334 20.2196C156.085 20.7488 155.531 21.0414 154.722 21.0414C153.651 21.0414 152.96 20.2881 152.916 19.099V19.0243H157.704V18.5574C157.704 16.4282 156.564 15.1395 154.678 15.1395C152.767 15.1395 151.553 16.5154 151.553 18.6819C151.553 20.8484 152.742 22.1807 154.684 22.1807C156.234 22.1807 157.318 21.4336 157.623 20.2196H156.334Z" fill="#616161"/>
<path d="M37.6535 30.4512C37.686 27.9297 39.0401 25.5438 41.1883 24.2231C39.8331 22.2877 37.5632 21.0605 35.2016 20.9866C32.6827 20.7222 30.2408 22.4939 28.9572 22.4939C27.6488 22.4939 25.6726 21.0129 23.5445 21.0567C20.7706 21.1463 18.1847 22.7233 16.8351 25.1485C13.9341 30.1711 16.098 37.5527 18.8769 41.6126C20.2673 43.6006 21.8922 45.8213 24.0184 45.7425C26.0989 45.6562 26.876 44.4158 29.3875 44.4158C31.8756 44.4158 32.6046 45.7425 34.774 45.6925C37.0065 45.6562 38.4131 43.6956 39.7547 41.6887C40.7537 40.2722 41.5224 38.7066 42.0323 37.05C39.4087 35.9403 37.6566 33.2999 37.6535 30.4512Z" fill="#F17228"/>
<path d="M33.556 18.3166C34.7733 16.8553 35.373 14.977 35.2278 13.0807C33.368 13.276 31.6501 14.1649 30.4164 15.5701C29.21 16.9431 28.5821 18.7883 28.7008 20.6122C30.5613 20.6313 32.3902 19.7666 33.556 18.3166Z" fill="#F17228"/>
</svg>
